<svg xmlns="http://www.w3.org/2000/svg" xmlns:xlink="http://www.w3.org/1999/xlink" width="500" zoomAndPan="magnify" viewBox="0 0 375 374.999991" height="500" preserveAspectRatio="xMidYMid meet" version="1.0"><defs><g/><clipPath id="9ef13eaabb"><path d="M 163.074219 173.652344 L 180.851562 173.652344 L 180.851562 191.429688 L 163.074219 191.429688 Z M 163.074219 173.652344 " clip-rule="nonzero"/></clipPath><clipPath id="0b9f66edb6"><path d="M 193.1875 173.355469 L 210.964844 173.355469 L 210.964844 191.132812 L 193.1875 191.132812 Z M 193.1875 173.355469 " clip-rule="nonzero"/></clipPath><clipPath id="4120bc4547"><path d="M 192.574219 178.082031 L 193.757812 178.082031 L 193.757812 179.074219 L 192.574219 179.074219 Z M 192.574219 178.082031 " clip-rule="nonzero"/></clipPath><clipPath id="06bbedfa30"><path d="M 193.753906 178.4375 C 193.21875 179.261719 192.722656 179.117188 192.617188 178.933594 C 192.515625 178.746094 192.617188 178.25 192.785156 178.125 C 192.949219 178 193.589844 178.1875 193.589844 178.1875 " clip-rule="nonzero"/></clipPath><clipPath id="7c0a1ccebe"><path d="M 179.414062 177.453125 L 193.355469 177.453125 L 193.355469 184.070312 L 179.414062 184.070312 Z M 179.414062 177.453125 " clip-rule="nonzero"/></clipPath><clipPath id="fc6baab451"><path d="M 179.445312 182.714844 C 180.441406 180.691406 181.183594 179.800781 181.660156 179.324219 C 181.992188 178.992188 182.257812 178.789062 182.589844 178.582031 C 182.921875 178.375 183.210938 178.207031 183.644531 178.0625 C 184.246094 177.855469 185.175781 177.648438 185.941406 177.566406 C 186.664062 177.484375 187.367188 177.421875 188.070312 177.546875 C 188.792969 177.671875 189.515625 178.023438 190.21875 178.375 C 190.945312 178.746094 191.8125 179.179688 192.328125 179.738281 C 192.804688 180.234375 193.257812 180.957031 193.300781 181.476562 C 193.34375 181.867188 193.175781 182.324219 192.929688 182.550781 C 192.679688 182.777344 192.144531 182.921875 191.8125 182.839844 C 191.480469 182.757812 191.089844 182.363281 190.945312 182.074219 C 190.839844 181.847656 190.820312 181.558594 190.921875 181.308594 C 191.046875 181.019531 191.441406 180.605469 191.730469 180.484375 C 191.976562 180.378906 192.289062 180.421875 192.515625 180.503906 C 192.742188 180.585938 192.992188 180.773438 193.136719 180.980469 C 193.28125 181.1875 193.34375 181.496094 193.320312 181.742188 C 193.300781 181.992188 193.195312 182.28125 193.011719 182.46875 C 192.785156 182.695312 192.246094 182.882812 191.9375 182.859375 C 191.667969 182.839844 191.460938 182.714844 191.234375 182.53125 C 190.902344 182.261719 190.714844 181.660156 190.300781 181.289062 C 189.804688 180.855469 189.082031 180.378906 188.398438 180.152344 C 187.71875 179.925781 186.953125 179.863281 186.230469 179.902344 C 185.484375 179.945312 184.574219 180.171875 183.996094 180.398438 C 183.582031 180.566406 183.3125 180.710938 182.984375 181.019531 C 182.527344 181.453125 181.867188 182.386719 181.617188 182.882812 C 181.472656 183.148438 181.515625 183.398438 181.371094 183.585938 C 181.226562 183.769531 181.019531 183.976562 180.769531 184.039062 C 180.5 184.101562 180.027344 183.996094 179.796875 183.875 C 179.632812 183.792969 179.550781 183.644531 179.488281 183.480469 C 179.40625 183.273438 179.445312 182.714844 179.445312 182.714844 " clip-rule="nonzero"/></clipPath><clipPath id="21049c6d8a"><path d="M 180.769531 177.128906 L 192.648438 177.128906 L 192.648438 181.269531 L 180.769531 181.269531 Z M 180.769531 177.128906 " clip-rule="nonzero"/></clipPath><clipPath id="a76f49c326"><path d="M 181.203125 178.910156 C 184.597656 177.277344 186.332031 177.050781 187.636719 177.175781 C 188.8125 177.296875 190.09375 177.835938 190.921875 178.25 C 191.5 178.539062 191.976562 178.847656 192.265625 179.179688 C 192.453125 179.40625 192.578125 179.613281 192.617188 179.863281 C 192.660156 180.109375 192.597656 180.421875 192.472656 180.628906 C 192.347656 180.855469 192.144531 181.082031 191.894531 181.164062 C 191.605469 181.269531 191.046875 181.269531 190.757812 181.082031 C 190.46875 180.894531 190.21875 180.421875 190.199219 180.089844 C 190.179688 179.757812 190.425781 179.261719 190.695312 179.054688 C 190.964844 178.847656 191.5 178.808594 191.8125 178.890625 C 192.058594 178.953125 192.308594 179.179688 192.433594 179.386719 C 192.554688 179.59375 192.640625 179.882812 192.617188 180.132812 C 192.597656 180.378906 192.515625 180.667969 192.328125 180.855469 C 192.101562 181.082031 191.707031 181.269531 191.253906 181.246094 C 190.445312 181.207031 188.957031 179.820312 187.964844 179.550781 C 187.199219 179.34375 186.582031 179.429688 185.855469 179.46875 C 185.113281 179.511719 184.285156 179.636719 183.582031 179.863281 C 182.921875 180.089844 182.136719 180.773438 181.722656 180.792969 C 181.515625 180.8125 181.390625 180.730469 181.246094 180.628906 C 181.082031 180.503906 180.875 180.253906 180.8125 180.027344 C 180.75 179.800781 180.8125 179.46875 180.894531 179.285156 C 180.957031 179.117188 181.203125 178.910156 181.203125 178.910156 " clip-rule="nonzero"/></clipPath><clipPath id="4fd6e9a409"><path d="M 185.292969 177.234375 L 187.410156 177.234375 L 187.410156 179.363281 L 185.292969 179.363281 Z M 185.292969 177.234375 " clip-rule="nonzero"/></clipPath><clipPath id="933c62e87d"><path d="M 185.484375 178.847656 C 185.484375 177.609375 185.835938 177.320312 186.125 177.257812 C 186.394531 177.195312 186.847656 177.320312 187.054688 177.527344 C 187.261719 177.734375 187.40625 178.167969 187.367188 178.457031 C 187.324219 178.746094 187.035156 179.097656 186.765625 179.222656 C 186.496094 179.34375 186.042969 179.304688 185.796875 179.160156 C 185.546875 179.015625 185.320312 178.601562 185.296875 178.3125 C 185.277344 178.023438 185.503906 177.628906 185.710938 177.441406 C 185.878906 177.296875 186.125 177.214844 186.351562 177.238281 C 186.621094 177.257812 187.035156 177.484375 187.199219 177.691406 C 187.34375 177.878906 187.429688 178.167969 187.40625 178.394531 C 187.386719 178.621094 187.285156 178.910156 187.097656 179.078125 C 186.890625 179.261719 186.4375 179.386719 186.167969 179.34375 C 185.941406 179.304688 185.546875 178.933594 185.546875 178.933594 " clip-rule="nonzero"/></clipPath><clipPath id="c6afd602b2"><path d="M 180.507812 177.078125 L 187.894531 177.078125 L 187.894531 181 L 180.507812 181 Z M 180.507812 177.078125 " clip-rule="nonzero"/></clipPath><clipPath id="d71b0811f8"><path d="M 186.890625 179.199219 C 183.5625 179.925781 182.734375 180.691406 182.175781 180.875 C 181.867188 180.980469 181.660156 181 181.433594 180.957031 C 181.203125 180.917969 180.9375 180.792969 180.792969 180.585938 C 180.605469 180.339844 180.480469 179.820312 180.542969 179.53125 C 180.585938 179.285156 180.769531 179.078125 180.957031 178.933594 C 181.144531 178.789062 181.390625 178.664062 181.640625 178.683594 C 181.929688 178.703125 182.425781 178.933594 182.609375 179.160156 C 182.777344 179.34375 182.816406 179.65625 182.816406 179.882812 C 182.816406 180.109375 182.714844 180.378906 182.570312 180.566406 C 182.425781 180.75 182.15625 180.894531 181.929688 180.957031 C 181.699219 181.019531 181.410156 181.019531 181.203125 180.894531 C 180.9375 180.75 180.585938 180.339844 180.523438 180.027344 C 180.460938 179.71875 180.644531 179.304688 180.851562 179.015625 C 181.082031 178.703125 181.496094 178.496094 181.847656 178.292969 C 182.21875 178.0625 182.609375 177.898438 183.085938 177.734375 C 183.6875 177.527344 184.511719 177.359375 185.195312 177.257812 C 185.835938 177.175781 186.621094 177.03125 187.054688 177.132812 C 187.324219 177.195312 187.53125 177.359375 187.675781 177.527344 C 187.800781 177.648438 187.863281 177.816406 187.882812 177.980469 C 187.902344 178.1875 187.882812 178.519531 187.738281 178.703125 C 187.574219 178.933594 186.890625 179.199219 186.890625 179.199219 " clip-rule="nonzero"/></clipPath><clipPath id="679114a94d"><path d="M 209 176 L 214 176 L 214 182 L 209 182 Z M 209 176 " clip-rule="nonzero"/></clipPath><clipPath id="b28713955d"><path d="M 209.152344 176.902344 L 212.554688 176.066406 L 213.773438 181.027344 L 210.371094 181.863281 Z M 209.152344 176.902344 " clip-rule="nonzero"/></clipPath><clipPath id="678397ddba"><path d="M 210.15625 176.664062 C 212.070312 176.40625 212.417969 176.554688 212.648438 176.859375 C 212.984375 177.332031 213.066406 178.480469 213.105469 179.175781 C 213.148438 179.71875 213.226562 180.296875 213.011719 180.6875 C 212.8125 181.054688 212.234375 181.324219 211.871094 181.457031 C 211.601562 181.546875 211.347656 181.585938 211.113281 181.539062 C 210.878906 181.488281 210.605469 181.363281 210.464844 181.164062 C 210.296875 180.929688 210.148438 180.414062 210.25 180.109375 C 210.355469 179.808594 210.753906 179.453125 211.039062 179.34375 C 211.28125 179.238281 211.578125 179.273438 211.792969 179.347656 C 212.011719 179.421875 212.269531 179.570312 212.394531 179.796875 C 212.546875 180.058594 212.605469 180.574219 212.476562 180.863281 C 212.347656 181.148438 211.910156 181.449219 211.625 181.539062 C 211.378906 181.621094 211.101562 181.582031 210.875 181.46875 C 210.613281 181.320312 210.289062 180.890625 210.21875 180.609375 C 210.160156 180.367188 210.257812 180.046875 210.375 179.886719 C 210.476562 179.757812 210.707031 179.804688 210.800781 179.636719 C 210.980469 179.292969 210.46875 177.566406 210.574219 177.539062 C 210.65625 177.519531 211.25 178.394531 211.136719 178.574219 C 211.027344 178.75 210.296875 178.757812 209.996094 178.617188 C 209.722656 178.496094 209.449219 178.113281 209.386719 177.851562 C 209.328125 177.613281 209.410156 177.316406 209.535156 177.113281 C 209.664062 176.910156 210.15625 176.664062 210.15625 176.664062 " clip-rule="nonzero"/></clipPath><clipPath id="c069ee8586"><path d="M 159 176 L 165 176 L 165 182 L 159 182 Z M 159 176 " clip-rule="nonzero"/></clipPath><clipPath id="57adde6527"><path d="M 164.191406 181.148438 L 159.71875 181.671875 L 159.128906 176.613281 L 163.601562 176.089844 Z M 164.191406 181.148438 " clip-rule="nonzero"/></clipPath><clipPath id="1b07d12e0d"><path d="M 162.871094 181.300781 C 160.402344 181.382812 159.988281 181.199219 159.757812 180.875 C 159.417969 180.371094 159.535156 179.214844 159.621094 178.515625 C 159.667969 177.96875 159.683594 177.386719 160.03125 177.011719 C 160.351562 176.660156 161.132812 176.445312 161.625 176.347656 C 161.976562 176.285156 162.308594 176.265625 162.597656 176.335938 C 162.882812 176.40625 163.207031 176.554688 163.34375 176.769531 C 163.511719 177.019531 163.601562 177.550781 163.414062 177.84375 C 163.226562 178.136719 162.648438 178.453125 162.269531 178.539062 C 161.945312 178.621094 161.574219 178.558594 161.3125 178.464844 C 161.050781 178.371094 160.753906 178.195312 160.640625 177.960938 C 160.5 177.683594 160.519531 177.164062 160.738281 176.886719 C 160.957031 176.613281 161.570312 176.351562 161.949219 176.285156 C 162.277344 176.226562 162.621094 176.292969 162.886719 176.425781 C 163.183594 176.601562 163.519531 177.0625 163.550781 177.347656 C 163.582031 177.59375 163.394531 177.910156 163.214844 178.054688 C 163.0625 178.175781 162.777344 178.105469 162.628906 178.269531 C 162.332031 178.59375 162.652344 180.367188 162.511719 180.386719 C 162.402344 180.398438 161.820312 179.464844 161.996094 179.300781 C 162.171875 179.132812 163.097656 179.191406 163.453125 179.359375 C 163.777344 179.507812 164.046875 179.914062 164.078125 180.179688 C 164.105469 180.425781 163.945312 180.71875 163.746094 180.90625 C 163.542969 181.097656 162.871094 181.300781 162.871094 181.300781 " clip-rule="nonzero"/></clipPath></defs><g clip-path="url(#9ef13eaabb)"><path fill="#ffd23d" d="M 180.984375 182.605469 C 180.984375 187.550781 176.972656 191.558594 172.027344 191.558594 C 167.085938 191.558594 163.074219 187.550781 163.074219 182.605469 C 163.074219 177.660156 167.085938 173.652344 172.027344 173.652344 C 176.972656 173.652344 180.984375 177.660156 180.984375 182.605469 " fill-opacity="1" fill-rule="nonzero"/></g><path fill="#171717" d="M 171.6875 185.871094 L 173.300781 185.871094 C 173.34375 185.871094 173.382812 185.894531 173.40625 185.929688 L 174.175781 187.265625 L 174.945312 185.929688 C 174.96875 185.894531 175.007812 185.871094 175.050781 185.871094 L 176.664062 185.871094 L 176.664062 181.09375 L 171.6875 181.09375 Z M 174.175781 187.621094 C 174.132812 187.621094 174.09375 187.597656 174.074219 187.5625 L 173.234375 186.105469 L 171.566406 186.105469 C 171.5 186.105469 171.449219 186.054688 171.449219 185.988281 L 171.449219 180.972656 C 171.449219 180.910156 171.5 180.855469 171.566406 180.855469 L 176.785156 180.855469 C 176.847656 180.855469 176.902344 180.910156 176.902344 180.972656 L 176.902344 185.988281 C 176.902344 186.054688 176.847656 186.105469 176.785156 186.105469 L 175.117188 186.105469 L 174.277344 187.5625 C 174.257812 187.597656 174.21875 187.621094 174.175781 187.621094 " fill-opacity="1" fill-rule="nonzero"/><path fill="#171717" d="M 169.882812 184.355469 C 169.839844 184.355469 169.800781 184.332031 169.78125 184.296875 L 168.941406 182.84375 L 167.273438 182.84375 C 167.210938 182.84375 167.15625 182.789062 167.15625 182.726562 L 167.15625 177.710938 C 167.15625 177.644531 167.210938 177.59375 167.273438 177.59375 L 172.492188 177.59375 C 172.558594 177.59375 172.609375 177.644531 172.609375 177.710938 L 172.609375 180.972656 C 172.609375 181.039062 172.558594 181.09375 172.492188 181.09375 C 172.425781 181.09375 172.371094 181.039062 172.371094 180.972656 L 172.371094 177.828125 L 167.394531 177.828125 L 167.394531 182.605469 L 169.007812 182.605469 C 169.050781 182.605469 169.089844 182.628906 169.113281 182.664062 L 169.882812 184 L 170.652344 182.664062 C 170.675781 182.628906 170.714844 182.605469 170.757812 182.605469 L 171.566406 182.605469 C 171.632812 182.605469 171.6875 182.660156 171.6875 182.726562 C 171.6875 182.789062 171.632812 182.84375 171.566406 182.84375 L 170.824219 182.84375 L 169.984375 184.296875 C 169.964844 184.332031 169.925781 184.355469 169.882812 184.355469 " fill-opacity="1" fill-rule="nonzero"/><path fill="#171717" d="M 168.75 181.445312 C 168.683594 181.445312 168.632812 181.390625 168.632812 181.328125 C 168.632812 181.261719 168.683594 181.207031 168.75 181.207031 C 169.578125 181.207031 170.25 180.535156 170.25 179.707031 C 170.25 179.644531 170.300781 179.589844 170.367188 179.589844 C 170.433594 179.589844 170.484375 179.644531 170.484375 179.707031 C 170.484375 180.171875 170.304688 180.609375 169.976562 180.9375 C 169.648438 181.265625 169.214844 181.445312 168.75 181.445312 " fill-opacity="1" fill-rule="nonzero"/><path fill="#171717" d="M 171.015625 181.445312 C 170.550781 181.445312 170.117188 181.265625 169.789062 180.9375 C 169.460938 180.609375 169.28125 180.171875 169.28125 179.707031 C 169.28125 179.644531 169.332031 179.589844 169.398438 179.589844 C 169.464844 179.589844 169.515625 179.644531 169.515625 179.707031 C 169.515625 180.535156 170.191406 181.207031 171.015625 181.207031 C 171.082031 181.207031 171.136719 181.261719 171.136719 181.328125 C 171.136719 181.390625 171.082031 181.445312 171.015625 181.445312 " fill-opacity="1" fill-rule="nonzero"/><path fill="#171717" d="M 171.015625 179.828125 L 168.75 179.828125 C 168.683594 179.828125 168.632812 179.773438 168.632812 179.707031 C 168.632812 179.644531 168.683594 179.589844 168.75 179.589844 L 171.015625 179.589844 C 171.082031 179.589844 171.136719 179.644531 171.136719 179.707031 C 171.136719 179.773438 171.082031 179.828125 171.015625 179.828125 " fill-opacity="1" fill-rule="nonzero"/><path fill="#171717" d="M 169.882812 179.828125 C 169.816406 179.828125 169.765625 179.773438 169.765625 179.707031 L 169.765625 179.109375 C 169.765625 179.042969 169.816406 178.992188 169.882812 178.992188 C 169.949219 178.992188 170 179.042969 170 179.109375 L 170 179.707031 C 170 179.773438 169.949219 179.828125 169.882812 179.828125 " fill-opacity="1" fill-rule="nonzero"/><path fill="#171717" d="M 173.289062 184.710938 C 173.273438 184.710938 173.261719 184.707031 173.246094 184.703125 C 173.183594 184.679688 173.15625 184.609375 173.179688 184.546875 L 174.0625 182.328125 C 174.085938 182.265625 174.15625 182.238281 174.21875 182.261719 C 174.277344 182.285156 174.308594 182.355469 174.285156 182.414062 L 173.398438 184.636719 C 173.382812 184.683594 173.335938 184.710938 173.289062 184.710938 " fill-opacity="1" fill-rule="nonzero"/><path fill="#171717" d="M 175.0625 184.710938 C 175.015625 184.710938 174.96875 184.683594 174.953125 184.636719 L 174.066406 182.414062 C 174.042969 182.355469 174.074219 182.285156 174.132812 182.261719 C 174.195312 182.238281 174.261719 182.265625 174.289062 182.328125 L 175.171875 184.546875 C 175.195312 184.609375 175.164062 184.679688 175.105469 184.703125 C 175.089844 184.707031 175.074219 184.710938 175.0625 184.710938 " fill-opacity="1" fill-rule="nonzero"/><path fill="#171717" d="M 174.742188 183.90625 L 173.609375 183.90625 C 173.542969 183.90625 173.492188 183.851562 173.492188 183.785156 C 173.492188 183.722656 173.542969 183.667969 173.609375 183.667969 L 174.742188 183.667969 C 174.804688 183.667969 174.859375 183.722656 174.859375 183.785156 C 174.859375 183.851562 174.804688 183.90625 174.742188 183.90625 " fill-opacity="1" fill-rule="nonzero"/><g fill="#000000" fill-opacity="1"><g transform="translate(141.08465, 193.516328)"><g><path d="M 2.296875 -21.609375 L 7.78125 -21.609375 C 10.882812 -21.609375 12.941406 -21.085938 13.953125 -20.046875 C 14.972656 -19.003906 15.484375 -17.75 15.484375 -16.28125 C 15.484375 -15.300781 15.269531 -14.375 14.84375 -13.5 C 14.414062 -12.632812 13.726562 -11.984375 12.78125 -11.546875 C 14.175781 -11.191406 15.203125 -10.570312 15.859375 -9.6875 C 16.515625 -8.8125 16.84375 -7.773438 16.84375 -6.578125 C 16.84375 -5.328125 16.644531 -4.226562 16.25 -3.28125 C 15.863281 -2.34375 15.050781 -1.5625 13.8125 -0.9375 C 12.582031 -0.3125 10.800781 0 8.46875 0 L 2.296875 0 Z M 8.3125 -12.4375 C 9.707031 -12.4375 10.695312 -12.769531 11.28125 -13.4375 C 11.875 -14.113281 12.171875 -14.972656 12.171875 -16.015625 C 12.171875 -17.878906 10.835938 -18.8125 8.171875 -18.8125 L 5.53125 -18.8125 L 5.53125 -12.4375 Z M 8.90625 -2.765625 C 10.6875 -2.765625 11.882812 -3.117188 12.5 -3.828125 C 13.125 -4.546875 13.4375 -5.453125 13.4375 -6.546875 C 13.4375 -7.585938 13.082031 -8.390625 12.375 -8.953125 C 11.664062 -9.523438 10.597656 -9.8125 9.171875 -9.8125 L 5.53125 -9.8125 L 5.53125 -2.765625 Z M 8.90625 -2.765625 "/></g></g></g><g clip-path="url(#0b9f66edb6)"><path fill="#ffd23d" d="M 211.09375 182.3125 C 211.09375 187.253906 207.085938 191.265625 202.140625 191.265625 C 197.195312 191.265625 193.1875 187.253906 193.1875 182.3125 C 193.1875 177.367188 197.195312 173.355469 202.140625 173.355469 C 207.085938 173.355469 211.09375 177.367188 211.09375 182.3125 " fill-opacity="1" fill-rule="nonzero"/></g><path fill="#171717" d="M 201.796875 185.574219 L 203.414062 185.574219 C 203.457031 185.574219 203.496094 185.597656 203.515625 185.632812 L 204.285156 186.96875 L 205.058594 185.632812 C 205.078125 185.597656 205.117188 185.574219 205.160156 185.574219 L 206.777344 185.574219 L 206.777344 180.796875 L 201.796875 180.796875 Z M 204.285156 187.324219 C 204.246094 187.324219 204.207031 187.300781 204.183594 187.265625 L 203.34375 185.8125 L 201.679688 185.8125 C 201.613281 185.8125 201.558594 185.757812 201.558594 185.691406 L 201.558594 180.679688 C 201.558594 180.613281 201.613281 180.558594 201.679688 180.558594 L 206.894531 180.558594 C 206.960938 180.558594 207.011719 180.613281 207.011719 180.679688 L 207.011719 185.691406 C 207.011719 185.757812 206.960938 185.8125 206.894531 185.8125 L 205.226562 185.8125 L 204.390625 187.265625 C 204.367188 187.300781 204.328125 187.324219 204.285156 187.324219 " fill-opacity="1" fill-rule="nonzero"/><path fill="#171717" d="M 199.992188 184.0625 C 199.953125 184.0625 199.914062 184.039062 199.890625 184 L 199.050781 182.546875 L 197.386719 182.546875 C 197.320312 182.546875 197.265625 182.496094 197.265625 182.429688 L 197.265625 177.414062 C 197.265625 177.351562 197.320312 177.296875 197.386719 177.296875 L 202.601562 177.296875 C 202.667969 177.296875 202.722656 177.351562 202.722656 177.414062 L 202.722656 180.679688 C 202.722656 180.746094 202.667969 180.796875 202.601562 180.796875 C 202.535156 180.796875 202.484375 180.746094 202.484375 180.679688 L 202.484375 177.535156 L 197.503906 177.535156 L 197.503906 182.3125 L 199.121094 182.3125 C 199.164062 182.3125 199.203125 182.332031 199.222656 182.371094 L 199.992188 183.707031 L 200.765625 182.371094 C 200.785156 182.332031 200.824219 182.3125 200.867188 182.3125 L 201.679688 182.3125 C 201.742188 182.3125 201.796875 182.363281 201.796875 182.429688 C 201.796875 182.496094 201.742188 182.546875 201.679688 182.546875 L 200.9375 182.546875 L 200.097656 184 C 200.074219 184.039062 200.035156 184.0625 199.992188 184.0625 " fill-opacity="1" fill-rule="nonzero"/><path fill="#171717" d="M 198.859375 181.148438 C 198.796875 181.148438 198.742188 181.097656 198.742188 181.03125 C 198.742188 180.964844 198.796875 180.914062 198.859375 180.914062 C 199.6875 180.914062 200.359375 180.238281 200.359375 179.414062 C 200.359375 179.347656 200.414062 179.292969 200.480469 179.292969 C 200.542969 179.292969 200.597656 179.347656 200.597656 179.414062 C 200.597656 179.875 200.417969 180.3125 200.089844 180.640625 C 199.761719 180.96875 199.324219 181.148438 198.859375 181.148438 " fill-opacity="1" fill-rule="nonzero"/><path fill="#171717" d="M 201.128906 181.148438 C 200.664062 181.148438 200.226562 180.96875 199.898438 180.640625 C 199.570312 180.3125 199.390625 179.875 199.390625 179.414062 C 199.390625 179.347656 199.445312 179.292969 199.507812 179.292969 C 199.574219 179.292969 199.628906 179.347656 199.628906 179.414062 C 199.628906 180.238281 200.300781 180.914062 201.128906 180.914062 C 201.191406 180.914062 201.246094 180.964844 201.246094 181.03125 C 201.246094 181.097656 201.191406 181.148438 201.128906 181.148438 " fill-opacity="1" fill-rule="nonzero"/><path fill="#171717" d="M 201.128906 179.53125 L 198.859375 179.53125 C 198.796875 179.53125 198.742188 179.476562 198.742188 179.414062 C 198.742188 179.347656 198.796875 179.292969 198.859375 179.292969 L 201.128906 179.292969 C 201.191406 179.292969 201.246094 179.347656 201.246094 179.414062 C 201.246094 179.476562 201.191406 179.53125 201.128906 179.53125 " fill-opacity="1" fill-rule="nonzero"/><path fill="#171717" d="M 199.992188 179.53125 C 199.929688 179.53125 199.875 179.476562 199.875 179.414062 L 199.875 178.8125 C 199.875 178.75 199.929688 178.695312 199.992188 178.695312 C 200.058594 178.695312 200.113281 178.75 200.113281 178.8125 L 200.113281 179.414062 C 200.113281 179.476562 200.058594 179.53125 199.992188 179.53125 " fill-opacity="1" fill-rule="nonzero"/><path fill="#171717" d="M 203.402344 184.414062 C 203.386719 184.414062 203.371094 184.414062 203.355469 184.40625 C 203.296875 184.382812 203.265625 184.3125 203.289062 184.253906 L 204.175781 182.03125 C 204.199219 181.96875 204.265625 181.941406 204.328125 181.964844 C 204.390625 181.988281 204.417969 182.058594 204.394531 182.117188 L 203.511719 184.339844 C 203.492188 184.386719 203.449219 184.414062 203.402344 184.414062 " fill-opacity="1" fill-rule="nonzero"/><path fill="#171717" d="M 205.171875 184.414062 C 205.125 184.414062 205.082031 184.386719 205.0625 184.339844 L 204.179688 182.117188 C 204.152344 182.058594 204.183594 181.988281 204.246094 181.964844 C 204.304688 181.941406 204.375 181.96875 204.398438 182.03125 L 205.28125 184.253906 C 205.304688 184.3125 205.277344 184.382812 205.214844 184.40625 C 205.203125 184.414062 205.1875 184.414062 205.171875 184.414062 " fill-opacity="1" fill-rule="nonzero"/><path fill="#171717" d="M 204.851562 183.609375 L 203.722656 183.609375 C 203.65625 183.609375 203.601562 183.554688 203.601562 183.492188 C 203.601562 183.425781 203.65625 183.371094 203.722656 183.371094 L 204.851562 183.371094 C 204.917969 183.371094 204.96875 183.425781 204.96875 183.492188 C 204.96875 183.554688 204.917969 183.609375 204.851562 183.609375 " fill-opacity="1" fill-rule="nonzero"/><g fill="#000000" fill-opacity="1"><g transform="translate(213.542397, 193.516328)"><g><path d="M 7.28125 -9.671875 L 5.53125 -7.5 L 5.53125 0 L 2.296875 0 L 2.296875 -21.609375 L 5.53125 -21.609375 L 5.53125 -11.96875 L 12.9375 -21.609375 L 16.875 -21.609375 L 9.4375 -12.109375 L 17.921875 0 L 13.90625 0 Z M 7.28125 -9.671875 "/></g></g></g><g fill="#000000" fill-opacity="1"><g transform="translate(159.082422, 193.516328)"><g><path d="M 12.21875 0.296875 C 10.257812 0.296875 8.453125 -0.15625 6.796875 -1.0625 C 5.148438 -1.976562 3.832031 -3.28125 2.84375 -4.96875 C 1.863281 -6.65625 1.375 -8.613281 1.375 -10.84375 C 1.375 -13.09375 1.863281 -15.054688 2.84375 -16.734375 C 3.832031 -18.410156 5.148438 -19.695312 6.796875 -20.59375 C 8.453125 -21.5 10.257812 -21.953125 12.21875 -21.953125 C 14.1875 -21.953125 15.992188 -21.5 17.640625 -20.59375 C 19.296875 -19.695312 20.613281 -18.410156 21.59375 -16.734375 C 22.582031 -15.054688 23.078125 -13.09375 23.078125 -10.84375 C 23.078125 -8.613281 22.582031 -6.65625 21.59375 -4.96875 C 20.613281 -3.28125 19.296875 -1.976562 17.640625 -1.0625 C 15.992188 -0.15625 14.1875 0.296875 12.21875 0.296875 Z M 12.21875 -2.671875 C 13.570312 -2.671875 14.804688 -2.988281 15.921875 -3.625 C 17.046875 -4.257812 17.9375 -5.191406 18.59375 -6.421875 C 19.25 -7.648438 19.578125 -9.113281 19.578125 -10.8125 C 19.578125 -12.539062 19.25 -14.015625 18.59375 -15.234375 C 17.9375 -16.460938 17.050781 -17.390625 15.9375 -18.015625 C 14.832031 -18.640625 13.59375 -18.953125 12.21875 -18.953125 C 10.851562 -18.953125 9.609375 -18.640625 8.484375 -18.015625 C 7.367188 -17.390625 6.488281 -16.460938 5.84375 -15.234375 C 5.195312 -14.015625 4.875 -12.539062 4.875 -10.8125 C 4.875 -9.113281 5.207031 -7.648438 5.875 -6.421875 C 6.539062 -5.191406 7.4375 -4.257812 8.5625 -3.625 C 9.6875 -2.988281 10.90625 -2.671875 12.21875 -2.671875 Z M 12.21875 -2.671875 "/></g></g></g><g fill="#000000" fill-opacity="1"><g transform="translate(189.511149, 192.916709)"><g><path d="M 12.21875 0.296875 C 10.257812 0.296875 8.453125 -0.15625 6.796875 -1.0625 C 5.148438 -1.976562 3.832031 -3.28125 2.84375 -4.96875 C 1.863281 -6.65625 1.375 -8.613281 1.375 -10.84375 C 1.375 -13.09375 1.863281 -15.054688 2.84375 -16.734375 C 3.832031 -18.410156 5.148438 -19.695312 6.796875 -20.59375 C 8.453125 -21.5 10.257812 -21.953125 12.21875 -21.953125 C 14.1875 -21.953125 15.992188 -21.5 17.640625 -20.59375 C 19.296875 -19.695312 20.613281 -18.410156 21.59375 -16.734375 C 22.582031 -15.054688 23.078125 -13.09375 23.078125 -10.84375 C 23.078125 -8.613281 22.582031 -6.65625 21.59375 -4.96875 C 20.613281 -3.28125 19.296875 -1.976562 17.640625 -1.0625 C 15.992188 -0.15625 14.1875 0.296875 12.21875 0.296875 Z M 12.21875 -2.671875 C 13.570312 -2.671875 14.804688 -2.988281 15.921875 -3.625 C 17.046875 -4.257812 17.9375 -5.191406 18.59375 -6.421875 C 19.25 -7.648438 19.578125 -9.113281 19.578125 -10.8125 C 19.578125 -12.539062 19.25 -14.015625 18.59375 -15.234375 C 17.9375 -16.460938 17.050781 -17.390625 15.9375 -18.015625 C 14.832031 -18.640625 13.59375 -18.953125 12.21875 -18.953125 C 10.851562 -18.953125 9.609375 -18.640625 8.484375 -18.015625 C 7.367188 -17.390625 6.488281 -16.460938 5.84375 -15.234375 C 5.195312 -14.015625 4.875 -12.539062 4.875 -10.8125 C 4.875 -9.113281 5.207031 -7.648438 5.875 -6.421875 C 6.539062 -5.191406 7.4375 -4.257812 8.5625 -3.625 C 9.6875 -2.988281 10.90625 -2.671875 12.21875 -2.671875 Z M 12.21875 -2.671875 "/></g></g></g><g clip-path="url(#4120bc4547)"><g clip-path="url(#06bbedfa30)"><path fill="#000000" d="M 191.792969 177.296875 L 194.585938 177.296875 L 194.585938 180.007812 L 191.792969 180.007812 Z M 191.792969 177.296875 " fill-opacity="1" fill-rule="nonzero"/></g></g><g clip-path="url(#7c0a1ccebe)"><g clip-path="url(#fc6baab451)"><path fill="#000000" d="M 178.621094 176.71875 L 194.148438 176.71875 L 194.148438 184.867188 L 178.621094 184.867188 Z M 178.621094 176.71875 " fill-opacity="1" fill-rule="nonzero"/></g></g><g clip-path="url(#21049c6d8a)"><g clip-path="url(#a76f49c326)"><path fill="#000000" d="M 179.984375 176.347656 L 193.453125 176.347656 L 193.453125 182.074219 L 179.984375 182.074219 Z M 179.984375 176.347656 " fill-opacity="1" fill-rule="nonzero"/></g></g><g clip-path="url(#4fd6e9a409)"><g clip-path="url(#933c62e87d)"><path fill="#000000" d="M 184.472656 176.410156 L 188.234375 176.410156 L 188.234375 180.171875 L 184.472656 180.171875 Z M 184.472656 176.410156 " fill-opacity="1" fill-rule="nonzero"/></g></g><g clip-path="url(#c6afd602b2)"><g clip-path="url(#d71b0811f8)"><path fill="#000000" d="M 179.695312 176.304688 L 188.707031 176.304688 L 188.707031 181.785156 L 179.695312 181.785156 Z M 179.695312 176.304688 " fill-opacity="1" fill-rule="nonzero"/></g></g><g clip-path="url(#679114a94d)"><g clip-path="url(#b28713955d)"><g clip-path="url(#678397ddba)"><path fill="#000000" d="M 208.121094 176.3125 L 213.097656 175.089844 L 214.710938 181.644531 L 209.730469 182.867188 Z M 208.121094 176.3125 " fill-opacity="1" fill-rule="nonzero"/></g></g></g><g clip-path="url(#c069ee8586)"><g clip-path="url(#57adde6527)"><g clip-path="url(#1b07d12e0d)"><path fill="#000000" d="M 165.386719 181.839844 L 158.84375 182.605469 L 158.0625 175.910156 L 164.601562 175.144531 Z M 165.386719 181.839844 " fill-opacity="1" fill-rule="nonzero"/></g></g></g><g fill="#000000" fill-opacity="1"><g transform="translate(153.500167, 208.10258)"><g><path d="M 5.671875 -12.226562 L 0.683594 -12.226562 L 0.683594 0 L 3.9375 0 L 3.9375 -4.328125 L 6.039062 -4.328125 C 8.191406 -4.546875 9.390625 -5.917969 9.390625 -8.242188 C 9.390625 -10.785156 8.046875 -12.226562 5.671875 -12.226562 Z M 5.40625 -7.238281 L 3.9375 -7.238281 L 3.9375 -9.269531 L 5.40625 -9.269531 C 6.089844 -9.242188 6.503906 -8.902344 6.503906 -8.242188 C 6.503906 -7.605469 6.089844 -7.238281 5.40625 -7.238281 Z M 5.40625 -7.238281 "/></g></g></g><g fill="#000000" fill-opacity="1"><g transform="translate(173.223323, 208.10258)"><g><path d="M 7.117188 -1.761719 L 7.628906 0 L 10.785156 0 L 7.140625 -12.226562 L 3.839844 -12.226562 L 0.148438 0 L 3.324219 0 L 3.816406 -1.761719 Z M 6.285156 -4.621094 L 4.695312 -4.621094 L 5.476562 -8.144531 Z M 6.285156 -4.621094 "/></g></g></g><g fill="#000000" fill-opacity="1"><g transform="translate(193.998033, 208.10258)"><g><path d="M 8.289062 -3.253906 L 3.9375 -3.253906 L 3.9375 -12.226562 L 0.683594 -12.226562 L 0.683594 0 L 8.289062 0 Z M 8.289062 -3.253906 "/></g></g></g><g fill="#000000" fill-opacity="1"><g transform="translate(212.718549, 208.10258)"><g><path d="M 5.136719 0.148438 C 2.789062 0.171875 1.199219 -1.148438 0.683594 -3.546875 L 3.351562 -4.351562 C 3.59375 -3.398438 4.230469 -2.835938 5.136719 -2.835938 C 6.113281 -2.835938 6.675781 -3.128906 6.675781 -3.644531 C 6.675781 -5.011719 0.441406 -4.941406 0.441406 -8.804688 C 0.441406 -11.101562 2.078125 -12.398438 5.039062 -12.398438 C 7.410156 -12.398438 9 -11.078125 9.511719 -8.679688 L 6.824219 -7.875 C 6.628906 -8.878906 5.96875 -9.441406 5.039062 -9.441406 C 4.058594 -9.441406 3.496094 -9.144531 3.496094 -8.609375 C 3.496094 -7.410156 9.757812 -7.3125 9.757812 -3.449219 C 9.757812 -1.101562 8.09375 0.195312 5.136719 0.148438 Z M 5.136719 0.148438 "/></g></g></g></svg>